<?xml version="1.0" encoding="UTF-8"?>
<svg version="1.1" xmlns="http://www.w3.org/2000/svg" width="512" height="512">
<path d="M0 0 C5.71232634 2.98710475 10.84871809 6.89992277 16.00390625 10.75 C19.20474394 13.09279447 22.47963066 15.30378056 25.7890625 17.48828125 C32.07464238 21.64522956 38.31574261 25.8636756 44.5390625 30.11328125 C45.47274658 30.75080322 46.40643066 31.3883252 47.3684082 32.04516602 C49.28366425 33.3533171 51.1987837 34.66166822 53.11376953 35.97021484 C57.73251888 39.12527047 62.35466898 42.27533424 66.9765625 45.42578125 C68.80991306 46.67575598 70.64324637 47.92575601 72.4765625 49.17578125 C73.3840625 49.79453125 74.2915625 50.41328125 75.2265625 51.05078125 C85.30989583 57.92578125 95.39322917 64.80078125 105.4765625 71.67578125 C106.38494873 72.29509521 107.29333496 72.91440918 108.22924805 73.55249023 C110.05378123 74.7965712 111.87816394 76.04087289 113.70239258 77.28540039 C118.41912816 80.50283216 123.13879438 83.715834 127.86328125 86.921875 C133.24440433 90.57529165 138.61601003 94.24224774 143.9765625 97.92578125 C144.61819336 98.36567383 145.25982422 98.80556641 145.92089844 99.25878906 C160.17589936 109.08616219 160.17589936 109.08616219 161.9765625 117.92578125 C163.4456635 131.62415545 157.01686883 140.29113423 149.4140625 151.17578125 C148.10010562 153.07671593 146.78629921 154.97775463 145.47265625 156.87890625 C144.56169189 158.19084961 144.56169189 158.19084961 143.63232422 159.52929688 C141.71330491 162.30680993 139.83495553 165.10745492 137.9765625 167.92578125 C139.22759766 168.03792969 139.22759766 168.03792969 140.50390625 168.15234375 C149.2699726 169.17655769 155.40392234 171.12844133 161.56640625 177.59375 C167.77626476 185.45957078 167.23876566 194.36993287 166.9765625 203.92578125 C167.57339844 204.18101562 168.17023438 204.43625 168.78515625 204.69921875 C171.21361372 206.05846232 172.38127776 207.33156008 174.0390625 209.55078125 C174.52503906 210.18242187 175.01101563 210.8140625 175.51171875 211.46484375 C179.06696274 217.43765366 180.42622797 222.91378101 180.31713867 229.81054688 C180.31757675 230.55298645 180.31801483 231.29542603 180.31846619 232.06036377 C180.31639655 234.48453204 180.29315361 236.90798566 180.26953125 239.33203125 C180.26392877 241.02453229 180.25966175 242.71703823 180.25666809 244.4095459 C180.24527062 248.84177324 180.21584796 253.2737008 180.18255615 257.70581055 C180.15174475 262.23742621 180.1381392 266.7690908 180.12304688 271.30078125 C180.09097285 280.17591221 180.03983891 289.0508217 179.9765625 297.92578125 C180.98432739 297.90620361 180.98432739 297.90620361 182.01245117 297.88623047 C182.9016626 297.8760791 183.79087402 297.86592773 184.70703125 297.85546875 C186.02417114 297.83589111 186.02417114 297.83589111 187.36791992 297.81591797 C192.02709939 298.01213985 196.09417891 299.16982641 199.546875 302.390625 C203.86200905 307.43316736 204.13267014 310.90900718 204.15356445 317.31933594 C204.16013565 318.18781158 204.16670685 319.05628723 204.17347717 319.95108032 C204.19323279 322.83327313 204.20487837 325.71541375 204.21484375 328.59765625 C204.21891928 329.58126381 204.2229948 330.56487137 204.22719383 331.57828522 C204.24806515 336.78526094 204.26236175 341.99221023 204.27172852 347.19921875 C204.28278957 352.57732891 204.31718305 357.95502493 204.35690022 363.33298874 C204.38305009 367.46800505 204.39141896 371.6029225 204.39500999 375.73801422 C204.39988089 377.72033736 204.41150915 379.70265594 204.43004799 381.68489838 C204.45440257 384.46181489 204.45348103 387.23765776 204.4465332 390.01464844 C204.45934326 390.83150116 204.47215332 391.64835388 204.48535156 392.48995972 C204.43726372 397.77139272 203.44181883 400.71763498 199.9765625 404.92578125 C195.24735574 409.19360199 192.08099425 410.05593643 185.7890625 409.98828125 C184.70238281 409.97925781 183.61570312 409.97023438 182.49609375 409.9609375 C181.66464844 409.94933594 180.83320313 409.93773437 179.9765625 409.92578125 C179.98544495 410.85570892 179.99432739 411.7856366 180.003479 412.7437439 C180.08484017 421.54081367 180.14465933 430.33780633 180.18381119 439.13516808 C180.20461684 443.65716708 180.23280479 448.17886044 180.27832031 452.70068359 C180.32203039 457.07087806 180.34575232 461.44077998 180.35607147 465.8111763 C180.36341797 467.47202784 180.37776323 469.13286478 180.39948273 470.79359055 C180.5529308 483.02156818 179.63180214 492.9033164 170.90625 502.171875 C164.35966301 508.12211297 157.63483326 511.17329652 148.76469803 511.18305016 C148.04575473 511.18655623 147.32681144 511.1900623 146.58608198 511.19367462 C144.17036863 511.20299887 141.75489581 511.1980627 139.33917236 511.19320679 C137.59235397 511.19694254 135.84553724 511.20154376 134.09872317 511.20693743 C129.29310903 511.21919225 124.48756438 511.21890404 119.68193817 511.21654868 C114.50115379 511.21614114 109.32039188 511.22717371 104.13961792 511.23666382 C93.98717507 511.25328863 83.83475544 511.25877404 73.68230012 511.25988857 C65.43068074 511.26083839 57.17906904 511.26494536 48.92745209 511.27128983 C25.53946786 511.28890663 2.151502 511.29812806 -21.23648891 511.29662888 C-22.49778351 511.29654897 -23.7590781 511.29646905 -25.05859375 511.29638672 C-26.95284229 511.29626408 -26.95284229 511.29626408 -28.88535848 511.29613896 C-49.35201491 511.29532603 -69.81859774 511.31446416 -90.28523287 511.34266345 C-111.29350042 511.37138089 -132.30173206 511.38520436 -153.31001973 511.3834759 C-165.10725209 511.38281158 -176.90440731 511.38832211 -188.70162201 511.409832 C-198.74627645 511.42802883 -208.79081879 511.43240347 -218.83548257 511.41881315 C-223.96063515 511.41227584 -229.08557259 511.41219392 -234.2107048 511.42951965 C-238.90378069 511.44522163 -243.59647032 511.44241608 -248.28953663 511.42495139 C-249.98603846 511.42187515 -251.68256891 511.42553734 -253.37903699 511.43667154 C-265.45479919 511.51066865 -274.12164643 510.28068806 -283.234375 501.78515625 C-290.73078708 493.99412536 -292.32358809 486.84899913 -292.29086304 476.21112061 C-292.29539415 475.13090834 -292.29992526 474.05069607 -292.30459368 472.9377501 C-292.31725562 469.31750608 -292.31561613 465.69741215 -292.31396484 462.07714844 C-292.31994899 459.4816824 -292.32675427 456.88621814 -292.33432007 454.29075623 C-292.35091626 447.97155681 -292.356429 441.65239472 -292.35754482 435.33317533 C-292.35849604 430.19466857 -292.36260998 425.05617408 -292.36894608 419.9176712 C-292.38655538 405.33932546 -292.39578553 390.76100914 -292.39428513 376.18265268 C-292.39420522 375.39711851 -292.3941253 374.61158433 -292.39404297 373.80224609 C-292.39396121 373.01574929 -292.39387945 372.22925249 -292.39379521 371.41892245 C-292.39298259 358.67725182 -292.41211502 345.93569947 -292.4403197 333.19406304 C-292.46907177 320.1014927 -292.48285869 307.00898001 -292.48113215 293.91637731 C-292.48046901 286.56973731 -292.48592784 279.2232213 -292.50748825 271.8766098 C-292.52764106 264.96548243 -292.52700259 258.05462066 -292.51245499 251.1434803 C-292.51036435 248.60950653 -292.51508287 246.07551644 -292.5271759 243.54157066 C-292.54263751 240.07686583 -292.53331291 236.61306224 -292.51791382 233.14837646 C-292.52820094 232.1504963 -292.53848807 231.15261613 -292.54908693 230.12449718 C-292.46332208 221.36570511 -290.20010661 213.48988285 -284.0859375 206.98828125 C-283.43753906 206.27800781 -282.78914063 205.56773437 -282.12109375 204.8359375 C-280.0234375 202.92578125 -280.0234375 202.92578125 -277.328125 201.58203125 C-274.71503354 200.08561732 -274.71503354 200.08561732 -274.30859375 196.921875 C-274.23511719 195.74753906 -274.16164063 194.57320312 -274.0859375 193.36328125 C-273.17528205 185.3412346 -271.06086018 179.29489335 -264.734375 174.015625 C-259.52112713 170.42408778 -255.64815027 168.79570657 -249.26171875 168.828125 C-248.14345703 168.83134766 -247.02519531 168.83457031 -245.87304688 168.83789062 C-244.70580078 168.84626953 -243.53855469 168.85464844 -242.3359375 168.86328125 C-241.15708984 168.86779297 -239.97824219 168.87230469 -238.76367188 168.87695312 C-235.85020707 168.88874853 -232.93685625 168.90606 -230.0234375 168.92578125 C-229.97440781 167.94471909 -229.92537811 166.96365692 -229.87486267 165.9528656 C-229.25237039 154.17006832 -228.19196791 142.45103959 -227.02734375 130.7109375 C-226.83163559 128.71896275 -226.63607684 126.72697331 -226.44065857 124.73497009 C-226.03359898 120.5941624 -225.62398865 116.45361679 -225.21264648 112.31323242 C-224.68805697 107.02973518 -224.17114068 101.74551834 -223.65625095 96.46106815 C-223.2556749 92.36074643 -222.85044319 88.26089457 -222.44389153 84.16116142 C-222.25137288 82.21303088 -222.06041006 80.26474588 -221.87109566 78.31630135 C-221.60581106 75.59195728 -221.33407876 72.86832676 -221.06079102 70.14477539 C-220.98539597 69.35651871 -220.91000092 68.56826202 -220.83232117 67.75611877 C-219.64852163 56.15553335 -218.03502445 48.02648658 -208.8046875 40.22265625 C-201.04937773 34.5762465 -191.88784704 35.85832522 -182.83154297 36.7902832 C-181.74907288 36.89421387 -180.66660278 36.99814453 -179.55133057 37.10522461 C-175.99679631 37.44898066 -172.44376061 37.80616074 -168.890625 38.1640625 C-166.40925149 38.40795107 -163.92781524 38.65120202 -161.44631958 38.8938446 C-155.59286764 39.4685134 -149.7403844 40.05238004 -143.88820851 40.63988703 C-137.9068207 41.23942666 -131.92400458 41.82380733 -125.94100761 42.4070406 C-120.82067943 42.90740548 -115.70100617 43.41422216 -110.58151627 43.92308617 C-108.13132147 44.16603922 -105.68095087 44.40722606 -103.2304039 44.64660072 C-99.80510904 44.98236954 -96.38076473 45.32657615 -92.95654297 45.6730957 C-91.94856659 45.77033432 -90.94059021 45.86757294 -89.90206909 45.96775818 C-84.74346512 46.49927586 -79.89256902 47.08979846 -75.0234375 48.92578125 C-73.0234375 51.92578125 -73.0234375 51.92578125 -73.0234375 55.92578125 C-69.48419053 56.65446312 -66.547072 56.80747598 -63.0234375 55.92578125 C-59.52368494 52.72820513 -57.27448115 48.83727541 -54.8359375 44.80078125 C-54.11476037 43.66594958 -53.38985229 42.53348095 -52.66137695 41.40332031 C-51.16687859 39.07792846 -49.68949748 36.74295222 -48.22363281 34.39941406 C-44.86575459 29.05988597 -41.28132313 23.87446101 -37.7109375 18.67578125 C-37.09516846 17.76683105 -36.47939941 16.85788086 -35.8449707 15.92138672 C-26.88184809 2.71903398 -17.21380315 -6.11601533 0 0 Z " fill="#030200" transform="translate(300.0234375,1.07421875)"/>
<path d="M0 0 C145.86 0 291.72 0 442 0 C442 11.22 442 22.44 442 34 C436.43640625 34.02578125 430.8728125 34.0515625 425.140625 34.078125 C421.5950074 34.10332104 418.04947278 34.1296751 414.50390625 34.16015625 C408.88850703 34.2083228 403.27330014 34.25243035 397.65771484 34.27099609 C393.12520055 34.28625116 388.59319286 34.3208514 384.06090546 34.36830902 C382.34039488 34.38303222 380.61981195 34.39103575 378.89923859 34.39188385 C361.86957441 34.40870474 346.75860988 37.88434238 334.1875 50.25 C329.5692816 55.12478609 325.88171099 59.93080161 323 66 C322.58878906 66.85464844 322.17757813 67.70929688 321.75390625 68.58984375 C316.02422472 82.72570164 317.94638135 99.5491588 323.6796875 113.3515625 C330.85919119 127.75305216 342.32486187 136.3513811 357.16052246 141.79237366 C365.93201767 144.53727956 374.61167336 144.47726094 383.69921875 144.51171875 C385.38744893 144.52859591 387.07566678 144.54675015 388.76387024 144.56611633 C393.17121525 144.61329321 397.57851024 144.64331033 401.98602295 144.66955566 C407.29356016 144.70481054 412.6009054 144.76172983 417.90828705 144.81494904 C425.93883241 144.89308335 433.96913307 144.94397519 442 145 C442 156.22 442 167.44 442 179 C437.49655441 179.00364563 432.99310883 179.00729126 428.35319519 179.01104736 C387.09128328 179.04629619 345.82943523 179.10128958 304.56757868 179.17792095 C299.16378645 179.18793886 293.75999392 179.19778291 288.35620117 179.20751953 C287.28036679 179.2094609 286.2045324 179.21140228 285.09609697 179.21340248 C267.65790491 179.24445522 250.21972602 179.26141226 232.78151151 179.27319422 C214.89901309 179.28558884 197.01658401 179.31305193 179.13412935 179.35461307 C168.0925212 179.37979695 157.05102797 179.39311372 146.00939069 179.39142957 C138.44599919 179.3913999 130.88272508 179.40595716 123.31937929 179.43216428 C118.95043442 179.44686638 114.58173028 179.4549655 110.21276474 179.44580269 C106.21735882 179.43756471 102.22243829 179.4475342 98.2271047 179.47233662 C96.77754271 179.47805845 95.32793527 179.47694632 93.87838652 179.46851245 C91.91606857 179.45806849 89.95366166 179.47436331 87.9913969 179.49219131 C86.89894151 179.4937102 85.80648612 179.49522908 84.68092602 179.49679399 C81.89451295 179.76379721 81.89451295 179.76379721 80.11381894 181.83642554 C78.54156492 184.89050238 79.08366161 186.75757184 80 190 C82.70261042 192.70261042 84.08563906 192.25382691 87.86834908 192.26171303 C89.12635358 192.26917852 90.38435808 192.27664401 91.68048394 192.28433573 C93.08948993 192.28255866 94.49849571 192.28059772 95.90750122 192.2784729 C97.39415857 192.28347148 98.8808132 192.28934597 100.36746395 192.29602563 C104.46752561 192.31189276 108.56751888 192.31525998 112.66760755 192.31667423 C117.08344826 192.32035663 121.49925093 192.33550621 125.91506958 192.34928894 C133.57070648 192.37160223 141.22632992 192.38659099 148.88199234 192.39665604 C159.95089746 192.41121904 171.01975572 192.4367491 182.0886334 192.46498732 C200.04556743 192.51049867 218.00250819 192.54709548 235.95947266 192.578125 C253.40675031 192.60829279 270.85401148 192.64263488 288.30126953 192.68261719 C289.37606249 192.68507874 290.45085545 192.68754028 291.5582179 192.69007643 C296.94994244 192.70245068 302.34166679 192.71490728 307.73339105 192.72740483 C352.48890439 192.83103763 397.24443821 192.92021939 442 193 C442.11710979 196.99974981 442.18755489 200.99905281 442.25 205 C442.28351563 206.12535156 442.31703125 207.25070312 442.3515625 208.41015625 C442.4423308 216.17084582 441.92854662 221.75698408 436.54525614 227.57119209 C429.98312718 232.7955138 421.11340305 231.69565465 413.18493652 231.64164734 C411.45543307 231.64812785 409.72593664 231.65678343 407.99645376 231.66742164 C403.25255594 231.69021794 398.50914906 231.68185736 393.76523471 231.66828239 C388.64584192 231.65902714 383.52654656 231.67851849 378.40718079 231.69425964 C368.38176876 231.72035089 358.35653604 231.7192577 348.33110297 231.70822146 C340.18346135 231.69966428 332.03587162 231.70049285 323.88822937 231.70801735 C322.72874671 231.70907224 321.56926406 231.71012713 320.37464556 231.71121398 C318.01920067 231.7133849 315.66375579 231.71557167 313.30831093 231.71777413 C291.21974363 231.73720552 269.13127695 231.72520434 247.04271787 231.70298818 C228.08846552 231.68473571 209.13440794 231.69564297 190.18017578 231.72729492 C168.17080472 231.76404659 146.16155531 231.78108328 124.15215349 231.76788265 C121.80535922 231.76654154 119.45856494 231.76523256 117.11177063 231.76395607 C115.37975572 231.76301007 115.37975572 231.76301007 113.61275062 231.76204496 C105.47460007 231.75901637 97.33654121 231.77028389 89.19841003 231.78720665 C79.28109788 231.80751837 69.36406066 231.80668199 59.44676292 231.77857425 C54.38643445 231.76478927 49.32658616 231.76064436 44.26627541 231.78252411 C39.63362846 231.80229028 35.0018854 231.79434617 30.36930114 231.76432977 C28.69377456 231.75832294 27.0181747 231.76243145 25.34270686 231.777693 C10.2383845 231.90524475 10.2383845 231.90524475 4.40146017 226.68840152 C-1.33389623 219.77876208 -1.53408489 212.59662586 -1.25 203.9375 C-1.22292969 202.35291992 -1.22292969 202.35291992 -1.1953125 200.73632812 C-1.14862013 198.1565745 -1.08315588 195.57879183 -1 193 C0.28688721 192.98541748 1.57377441 192.97083496 2.8996582 192.95581055 C7.6689855 192.89788852 12.43783762 192.82065537 17.20678711 192.73754883 C19.2718129 192.70427076 21.33693027 192.67624786 23.40209961 192.65356445 C26.36872432 192.62007145 29.33450748 192.56775855 32.30078125 192.51171875 C33.68841423 192.50213387 33.68841423 192.50213387 35.1040802 192.49235535 C35.96474594 192.47256119 36.82541168 192.45276703 37.7121582 192.43237305 C38.46938675 192.42126999 39.2266153 192.41016693 40.00679016 192.39872742 C42.5501459 191.88994724 43.44896531 191.05142562 45 189 C45.5 186 45.5 186 45 183 C34.3515781 172.3515781 15.05487601 179.35844943 0 179 C0 119.93 0 60.86 0 0 Z " fill="#FEB024" transform="translate(23,266)"/>
<path d="M0 0 C4.48510033 -0.00533396 8.96772619 0.02827971 13.45214844 0.09765625 C14.97679846 0.11579913 16.50161273 0.12338779 18.02636719 0.12011719 C20.22199104 0.11725457 22.41422194 0.15261171 24.609375 0.1953125 C26.5888916 0.21102295 26.5888916 0.21102295 28.60839844 0.22705078 C30.28724121 0.60966064 30.28724121 0.60966064 32 1 C32.43814907 1.99027758 32.87629814 2.98055515 33.32772446 4.00084114 C34.30538489 5.73369093 34.30538489 5.73369093 36 7 C40.67835213 7.96939352 45.39087702 7.8077622 50.14801025 7.75949097 C51.6364044 7.76623626 53.12478856 7.77561304 54.61315131 7.78740036 C58.70895679 7.81219563 62.80393184 7.79955381 66.89973879 7.78093672 C71.31422113 7.76738137 75.72855315 7.7883472 80.14300537 7.80516052 C87.79322741 7.8295543 95.44320502 7.83198442 103.09345245 7.81957626 C114.15442698 7.80166777 125.21516185 7.81675998 136.27611753 7.83995558 C154.22088092 7.8766886 172.16555576 7.88666273 190.11035156 7.87988281 C207.54397595 7.87335316 224.97752124 7.87938006 242.41113281 7.90234375 C244.02253408 7.90445973 244.02253408 7.90445973 245.66648892 7.90661846 C251.05567232 7.9137728 256.44485536 7.92117452 261.83403826 7.92869925 C306.55603178 7.9908229 351.27796822 8.00955069 396 8 C396.11710979 11.99974981 396.18755489 15.99905281 396.25 20 C396.28351563 21.12535156 396.31703125 22.25070312 396.3515625 23.41015625 C396.4423308 31.17084582 395.92854662 36.75698408 390.54525614 42.57119209 C383.98312718 47.7955138 375.11340305 46.69565465 367.18493652 46.64164734 C365.45543307 46.64812785 363.72593664 46.65678343 361.99645376 46.66742164 C357.25255594 46.69021794 352.50914906 46.68185736 347.76523471 46.66828239 C342.64584192 46.65902714 337.52654656 46.67851849 332.40718079 46.69425964 C322.38176876 46.72035089 312.35653604 46.7192577 302.33110297 46.70822146 C294.18346135 46.69966428 286.03587162 46.70049285 277.88822937 46.70801735 C276.72874671 46.70907224 275.56926406 46.71012713 274.37464556 46.71121398 C272.01920067 46.7133849 269.66375579 46.71557167 267.30831093 46.71777413 C245.21974363 46.73720552 223.13127695 46.72520434 201.04271787 46.70298818 C182.08846552 46.68473571 163.13440794 46.69564297 144.18017578 46.72729492 C122.17080472 46.76404659 100.16155531 46.78108328 78.15215349 46.76788265 C75.80535922 46.76654154 73.45856494 46.76523256 71.11177063 46.76395607 C69.37975572 46.76301007 69.37975572 46.76301007 67.61275062 46.76204496 C59.47460007 46.75901637 51.33654121 46.77028389 43.19841003 46.78720665 C33.28109788 46.80751837 23.36406066 46.80668199 13.44676292 46.77857425 C8.38643445 46.76478927 3.32658616 46.76064436 -1.73372459 46.78252411 C-6.36637154 46.80229028 -10.9981146 46.79434617 -15.63069886 46.76432977 C-17.30622544 46.75832294 -18.9818253 46.76243145 -20.65729314 46.777693 C-35.7616155 46.90524475 -35.7616155 46.90524475 -41.59853983 41.68840152 C-47.33389623 34.77876208 -47.53408489 27.59662586 -47.25 18.9375 C-47.23195313 17.88111328 -47.21390625 16.82472656 -47.1953125 15.73632812 C-47.14862013 13.1565745 -47.08315588 10.57879183 -47 8 C-45.71311279 7.98541748 -44.42622559 7.97083496 -43.1003418 7.95581055 C-38.3310145 7.89788852 -33.56216238 7.82065537 -28.79321289 7.73754883 C-26.7281871 7.70427076 -24.66306973 7.67624786 -22.59790039 7.65356445 C-19.63127568 7.62007145 -16.66549252 7.56775855 -13.69921875 7.51171875 C-12.31158577 7.50213387 -12.31158577 7.50213387 -10.8959198 7.49235535 C-10.03525406 7.47256119 -9.17458832 7.45276703 -8.2878418 7.43237305 C-7.53061325 7.42126999 -6.7733847 7.41016693 -5.99320984 7.39872742 C-3.4685142 6.89368006 -2.58061441 5.99556897 -1 4 C-0.28552357 1.89667109 -0.28552357 1.89667109 0 0 Z " fill="#FE6C39" transform="translate(69,451)"/>
<path d="M0 0 C0.70342821 -0.00265183 1.40685643 -0.00530365 2.13160065 -0.00803584 C4.50650578 -0.01574133 6.88135932 -0.01628849 9.25627613 -0.01688576 C10.96908172 -0.02089955 12.68188637 -0.02533764 14.39468986 -0.03016531 C19.11552092 -0.04214583 23.83634176 -0.04778268 28.55718505 -0.05234647 C33.64322925 -0.05829692 38.72926119 -0.0699081 43.81529713 -0.08063698 C56.10488063 -0.10517301 68.39446819 -0.1197895 80.68406865 -0.13269705 C84.15394275 -0.13640797 87.62381645 -0.14038128 91.09369016 -0.14444971 C112.63154531 -0.16968421 134.16940108 -0.19174184 155.70726776 -0.20417786 C160.69738422 -0.20710765 165.68750066 -0.2100693 170.67761707 -0.21308327 C171.91791783 -0.21382932 173.15821859 -0.21457537 174.43610422 -0.21534403 C194.53498296 -0.22800172 214.63377332 -0.26122974 234.73261072 -0.3028851 C255.35773127 -0.34528156 275.98280653 -0.36887021 296.60797054 -0.37409842 C308.19228344 -0.37751503 319.7764582 -0.3892998 331.36072826 -0.42220116 C341.22504165 -0.4501713 351.08918859 -0.4612143 360.95353856 -0.4500057 C365.9874709 -0.44481139 371.0210545 -0.44775609 376.05493641 -0.47247124 C380.66360191 -0.49491004 385.27166706 -0.49426571 389.8803427 -0.47526737 C391.54728353 -0.47245982 393.2142646 -0.47810773 394.88114055 -0.4930803 C411.10913684 -0.6299304 411.10913684 -0.6299304 417.15637684 5.13701439 C426.62319565 15.57478897 422.15637684 18.6115881 422.15637684 38.13701439 C276.29637684 38.13701439 130.43637684 38.13701439 -19.84362316 38.13701439 C-19.84362316 10.2543738 -19.84362316 10.2543738 -14.24596691 4.49248314 C-9.31239953 0.55878542 -6.218143 0.01151795 0 0 Z " fill="#FE6C39" transform="translate(42.84362316131592,212.8629856109619)"/>
<path d="M0 0 C3.038668 1.56992658 5.74032312 3.5504819 8.5 5.5625 C10.20134737 6.76499603 11.90318997 7.96679161 13.60546875 9.16796875 C14.49024902 9.79880371 15.3750293 10.42963867 16.28662109 11.07958984 C20.75272401 14.2405009 25.28484595 17.30324042 29.8125 20.375 C31.66300906 21.63635405 33.51326739 22.89807601 35.36328125 24.16015625 C40.1272258 27.40720642 44.89566845 30.647567 49.66796875 33.88232422 C51.53968254 35.15799398 53.40571 36.4420516 55.265625 37.73486328 C59.25172706 40.50178093 63.19625813 43.16913786 67.45703125 45.49609375 C76.27266785 50.50793645 76.27266785 50.50793645 77.61621094 55.11132812 C78.3307047 60.02979795 78.17311818 64.89647643 77.99853516 69.84912109 C78.0023764 75.48935202 80.16278207 80.41526606 82.75 85.3125 C84.28293888 88.60831858 84.04448138 89.56354827 83 93 C81.26928711 95.94750977 81.26928711 95.94750977 79.02734375 99.19140625 C78.62600723 99.77736069 78.22467072 100.36331512 77.81117249 100.96702576 C76.52759439 102.83758455 75.23295275 104.70015074 73.9375 106.5625 C72.67455665 108.39445911 71.41393475 110.22797215 70.15530396 112.06289673 C69.32004985 113.27349336 68.4779624 114.47940367 67.62911987 115.68051147 C65.60009161 118.5672754 63.72100168 121.43108677 62.06884766 124.55126953 C57.62546639 132.50375857 57.62546639 132.50375857 52.94116211 133.93383789 C49.38197534 134.18229548 46.05364856 134.05459845 42.5 133.75 C41.29601562 133.69585937 40.09203125 133.64171875 38.8515625 133.5859375 C35.89355522 133.44508001 32.95057369 133.24864385 30 133 C29.82984375 132.09378906 29.6596875 131.18757812 29.484375 130.25390625 C26.28401093 114.16696984 19.46851483 98.99826843 5.5859375 89.31640625 C-10.40012098 79.39317181 -27.11791068 76.408437 -45.74609375 79.65234375 C-62.82659212 84.93754444 -74.50162226 95.71179565 -83 111 C-86.71341902 118.24901234 -87.6211587 124.72695221 -89 133 C-101.21 133 -113.42 133 -126 133 C-120.41666667 122.95 -120.41666667 122.95 -117.1875 118.6875 C-114.42590904 114.98739827 -111.7863621 111.23927886 -109.2421875 107.38671875 C-105.18437918 101.269219 -101.07025784 95.19204392 -96.9375 89.125 C-96.20289551 88.04565186 -95.46829102 86.96630371 -94.71142578 85.85424805 C-86.87064113 74.33476946 -79.01867753 62.82290695 -71.16601562 51.31152344 C-69.31886611 48.60361402 -67.47191832 45.89556711 -65.625 43.1875 C-65.02139648 42.30271973 -64.41779297 41.41793945 -63.79589844 40.50634766 C-60.29519793 35.37302934 -56.80096079 30.23538925 -53.3125 25.09375 C-52.52394258 23.93203612 -51.73536848 22.77033357 -50.94677734 21.60864258 C-49.41986226 19.35928988 -47.89437765 17.10897586 -46.36962891 14.8581543 C-45.33974854 13.34088745 -45.33974854 13.34088745 -44.2890625 11.79296875 C-43.37181396 10.43981567 -43.37181396 10.43981567 -42.43603516 9.05932617 C-41 7 -41 7 -40 6 C-38.62980747 5.87932592 -37.25404385 5.82046952 -35.87890625 5.7890625 C-35.03005859 5.76271729 -34.18121094 5.73637207 -33.30664062 5.70922852 C-32.40107422 5.68143311 -31.49550781 5.6536377 -30.5625 5.625 C-22.70464551 5.31332362 -15.07814023 4.97282793 -8.125 0.90234375 C-5.07379636 -0.39329603 -3.31332784 -0.47727699 0 0 Z " fill="#76DB00" transform="translate(315,65)"/>
<path d="M0 0 C0.96930875 0.02897747 0.96930875 0.02897747 1.9581995 0.05854034 C10.14042315 0.37469457 18.29848651 1.24181485 26.43777275 2.10231018 C29.37048871 2.41209862 32.30407871 2.7120157 35.23805237 3.00964355 C42.51967912 3.75021539 49.79964826 4.50655855 57.07958984 5.26348877 C63.25416705 5.90497684 69.42936184 6.53978349 75.60551643 7.16590881 C78.466279 7.45857655 81.32592977 7.76073302 84.18565369 8.06335449 C101.4481224 11.06625238 101.4481224 11.06625238 117.35545349 8.0411377 C118.5564043 6.42391548 118.5564043 6.42391548 119.48803711 4.43554688 C122.45803711 4.43554688 125.42803711 4.43554688 128.48803711 4.43554688 C128.48803711 8.95765513 127.80644657 9.91430051 125.29663086 13.52148438 C124.60682129 14.52332764 123.91701172 15.5251709 123.20629883 16.55737305 C122.45364746 17.63092041 121.70099609 18.70446777 120.92553711 19.81054688 C120.14610962 20.93660274 119.36763818 22.06332092 118.59008789 23.19067383 C116.99791544 25.49707289 115.40128241 27.80027769 113.80102539 30.10107422 C110.45406367 34.91833748 107.16050284 39.7718361 103.86303711 44.62304688 C102.63160966 46.42927062 101.39983907 48.23526046 100.16772461 50.04101562 C96.44032664 55.50528989 92.71410095 60.97036282 88.98803711 66.43554688 C87.73804216 68.26888365 86.48804216 70.10221699 85.23803711 71.93554688 C84.61928711 72.84304687 84.00053711 73.75054687 83.36303711 74.68554688 C76.48803711 84.76888021 69.61303711 94.85221354 62.73803711 104.93554688 C62.11823975 105.8446582 61.49844238 106.75376953 60.85986328 107.69042969 C59.620726 109.50768018 58.38130943 111.32474027 57.14160156 113.14160156 C53.84798276 117.96940701 50.56051286 122.80126703 47.28100586 127.63867188 C46.59393555 128.65058594 45.90686523 129.6625 45.19897461 130.70507812 C43.87558508 132.65439513 42.5538994 134.60487024 41.23413086 136.55664062 C40.64116211 137.42933594 40.04819336 138.30203125 39.43725586 139.20117188 C38.91478271 139.97235352 38.39230957 140.74353516 37.85400391 141.53808594 C36.48803711 143.43554687 36.48803711 143.43554687 34.48803711 145.43554688 C31.83511954 145.61065073 29.28817537 145.6671017 26.63647461 145.63085938 C25.47542709 145.62661453 25.47542709 145.62661453 24.29092407 145.62228394 C21.81480554 145.61107441 19.33904661 145.5859689 16.86303711 145.56054688 C15.18595899 145.55051805 13.50887522 145.54139203 11.83178711 145.53320312 C7.71706488 145.51113261 3.602612 145.47659789 -0.51196289 145.43554688 C-0.77346861 136.15784308 0.0442654 127.04000087 0.94897461 117.82226562 C1.10138206 116.23812793 1.25352775 114.65396504 1.40542603 113.06977844 C1.72304724 109.77069278 2.04461278 106.47202117 2.36889648 103.17358398 C2.78301327 98.95694578 3.18589599 94.73931907 3.58571434 90.52130413 C3.89647737 87.25824012 4.21379247 83.995838 4.53300858 80.73359108 C4.68426519 79.1785442 4.83336189 77.62328558 4.98020554 76.06781578 C5.18619357 73.89499326 5.40117052 71.72323645 5.6184082 69.55151367 C5.73832123 68.31894333 5.85823425 67.08637299 5.98178101 65.81645203 C6.48460395 62.45847437 7.18026724 59.56846404 8.48803711 56.43554688 C11.17553711 54.63476562 11.17553711 54.63476562 14.48803711 53.12304688 C22.32567918 49.19555588 29.68981986 44.41966845 33.55053711 36.31054688 C34.72241211 34.62304688 34.72241211 34.62304688 36.48803711 33.43554688 C41.20038849 32.93688535 45.76961261 33.52373121 50.45043945 34.08251953 C56.12731654 34.74228197 61.81911095 35.25750508 67.50863647 35.79473877 C69.55732327 35.99266431 71.60429302 36.20358796 73.65136719 36.41748047 C82.65196444 37.31759555 91.45400464 37.60320374 100.48803711 37.43554688 C100.73553711 36.19804688 100.98303711 34.96054688 101.23803711 33.68554688 C101.37725586 32.98945312 101.51647461 32.29335937 101.65991211 31.57617188 C101.65840473 29.28099455 101.65840473 29.28099455 99.93725586 27.23632812 C96.73070088 24.87871753 94.51428556 24.72314445 90.55053711 24.37304688 C89.02706665 24.22886341 87.50363192 24.0843022 85.98022461 23.93945312 C85.12138672 23.86355957 84.26254883 23.78766602 83.37768555 23.70947266 C80.11951837 23.40061294 76.8716969 23.02851033 73.62084961 22.65039062 C62.45432058 21.37231177 51.2977064 20.15370966 40.05053711 19.99804688 C39.25929443 19.97597168 38.46805176 19.95389648 37.65283203 19.93115234 C32.43821908 19.95062054 29.47278736 21.10509733 25.48803711 24.43554688 C23.88432239 26.24023932 23.88432239 26.24023932 22.67553711 28.18554688 C16.94801134 36.14784369 10.36106042 40.97337877 1.28491211 44.62304688 C-2.81435989 47.27955834 -4.77123329 49.85786095 -6.51196289 54.43554688 C-7.62586171 60.15174961 -8.09923091 65.88679259 -8.57446289 71.68554688 C-8.72986829 73.39161317 -8.88721659 75.09750347 -9.04638672 76.80322266 C-9.38120156 80.43198496 -9.70312718 84.06156834 -10.01489258 87.69238281 C-10.52465438 93.62195861 -11.06681845 99.54834079 -11.61352539 105.47460938 C-12.15068258 111.30770217 -12.68614179 117.1408836 -13.20556641 122.97558594 C-13.28571991 123.87465668 -13.36587341 124.77372742 -13.44845581 125.70004272 C-13.59678078 127.36779424 -13.74433315 129.03561476 -13.89089966 130.70352173 C-14.35846122 135.95688638 -14.9144841 141.19531597 -15.51196289 146.43554688 C-18.81196289 146.43554688 -22.11196289 146.43554688 -25.51196289 146.43554688 C-24.87587101 138.60194808 -24.18116827 130.77653142 -23.42041016 122.95410156 C-23.31618744 121.87589645 -23.21196472 120.79769135 -23.10458374 119.68681335 C-22.76341086 116.1602618 -22.42099187 112.63383284 -22.07836914 109.10742188 C-21.83795872 106.62941567 -21.59755664 104.15140866 -21.35716248 101.67340088 C-20.85429156 96.49233019 -20.35068623 91.31133143 -19.84667969 86.13037109 C-19.2047208 79.52978717 -18.56555868 72.92893565 -17.9270792 66.32801437 C-17.43182182 61.21282498 -16.93456636 56.0978312 -16.43678093 50.98288727 C-16.20045855 48.55119061 -15.96485276 46.1194242 -15.73001289 43.68758392 C-15.10249373 37.19344057 -14.45753071 30.70157336 -13.78831863 24.21159363 C-13.53097888 21.62656618 -13.30347062 19.04071432 -13.08370972 16.45227051 C-12.94466067 15.01204495 -12.8048467 13.57189292 -12.6640625 12.13183594 C-12.55960312 10.9381842 -12.45514374 9.74453247 -12.34751892 8.51470947 C-10.5277774 1.80866004 -6.64126357 -0.23313017 0 0 Z " fill="#76DC00" transform="translate(107.511962890625,52.564453125)"/>
<path d="M0 0 C1.40407608 -0.00284752 1.40407608 -0.00284752 2.83651733 -0.00575256 C5.899563 -0.00942773 8.96236642 0.00119197 12.02539062 0.01245117 C14.1624753 0.01364428 16.29956051 0.01409586 18.43664551 0.01383972 C22.89822711 0.01539861 27.3597278 0.02364708 31.82128906 0.03710938 C37.5526418 0.05418097 43.28390648 0.05792106 49.01528168 0.05716419 C53.41944221 0.05743529 57.82358333 0.06290549 62.22773743 0.07016563 C64.34255323 0.07335556 66.45737125 0.07532046 68.57218933 0.07605934 C71.51431077 0.07821481 74.45633646 0.0869393 77.3984375 0.09765625 C78.27837372 0.09720306 79.15830994 0.09674988 80.06491089 0.09628296 C86.0671587 0.12843799 86.0671587 0.12843799 87.18164062 1.24291992 C87.27668313 3.76832994 87.3072122 6.26629118 87.29516602 8.79199219 C87.29531204 9.58217743 87.29545807 10.37236267 87.29560852 11.18649292 C87.29490919 13.81079814 87.2871159 16.43503328 87.27929688 19.05932617 C87.27743277 20.87393658 87.27600883 22.68854748 87.27500916 24.50315857 C87.27118342 29.28882222 87.26135266 34.07445572 87.25030518 38.86010742 C87.24009225 43.73966056 87.23551179 48.61921856 87.23046875 53.4987793 C87.21973044 63.08017278 87.20265336 72.66154385 87.18164062 82.24291992 C74.20291572 82.33582184 61.22427064 82.40678743 48.24528027 82.45016861 C42.21784359 82.4709951 36.19063533 82.49922263 30.16333008 82.54467773 C24.34075504 82.58831136 18.51839898 82.61209413 12.69567299 82.62242889 C10.48023345 82.62978885 8.26480515 82.6441608 6.04945946 82.66584015 C-11.14207133 82.82730301 -22.86300044 81.66818084 -35.75585938 69.39916992 C-44.32352083 60.38835356 -47.20897008 50.04694475 -47.09570312 37.91479492 C-46.28882801 27.23222295 -40.81334688 17.73823081 -33.06835938 10.49291992 C-23.19715985 2.38913517 -12.51069862 -0.08139459 0 0 Z " fill="#FC6B39" transform="translate(401.818359375,313.757080078125)"/>
<path d="M0 0 C2.42822266 1.34619141 2.42822266 1.34619141 5.1015625 3.1015625 C6.07456299 3.73787598 7.04756348 4.37418945 8.05004883 5.02978516 C12.48885268 7.99437566 16.91213456 10.97861087 21.3125 14 C23.24606181 15.32296335 25.1796565 16.64587865 27.11328125 17.96875 C28.57822021 18.97228516 28.57822021 18.97228516 30.07275391 19.99609375 C34.71047965 23.17094387 39.35545578 26.33513726 44 29.5 C45.83337125 30.74994439 47.66670451 31.9999445 49.5 33.25 C50.4075 33.86875 51.315 34.4875 52.25 35.125 C60.5 40.75 60.5 40.75 63.24926758 42.62451172 C65.08502855 43.87615952 66.92080332 45.12778708 68.7565918 46.37939453 C73.30289492 49.47901847 77.84896796 52.57897869 82.39453125 55.6796875 C91.03486148 61.57309193 99.67745303 67.46311959 108.32714844 73.34277344 C110.43372804 74.77504009 112.53985185 76.20797737 114.64550781 77.64160156 C119.81839611 81.16277872 124.99749675 84.67395334 130.19140625 88.1640625 C131.18011719 88.83115234 132.16882813 89.49824219 133.1875 90.18554688 C135.03738478 91.43346507 136.890038 92.67729428 138.74609375 93.91601562 C153.36570906 103.80112475 153.36570906 103.80112475 154.9375 109.25 C153.50233601 114.99065598 150.37275861 119.19189929 147 124 C146.20283006 125.16296942 145.40732454 126.32708106 144.61328125 127.4921875 C142.79765485 130.15054778 140.97227354 132.80187361 139.140625 135.44921875 C136.28945777 139.57394375 133.45907111 143.71251144 130.63769531 147.85766602 C129.37644317 149.70664338 128.11013563 151.55218212 126.83886719 153.39428711 C123.46763646 158.29398514 120.21211868 163.23186937 117.09375 168.296875 C116.44954102 169.31442871 115.80533203 170.33198242 115.14160156 171.38037109 C113.90862456 173.33231945 112.70564108 175.30363967 111.53808594 177.29541016 C109.84175721 179.93968729 108.42648052 182.00004032 106 184 C102.1983839 184.77440328 98.81695078 184.60035109 95 184 C96.18945256 180.80420467 97.45243665 178.1036432 99.46875 175.35546875 C99.95311523 174.68668701 100.43748047 174.01790527 100.93652344 173.32885742 C101.4524707 172.62220947 101.96841797 171.91556152 102.5 171.1875 C104.13225905 168.89303714 105.75679865 166.59323981 107.38085938 164.29296875 C108.43076486 162.80613034 109.48395523 161.32160395 110.54101562 159.83984375 C118.10029958 149.35263875 118.10029958 149.35263875 119.6796875 136.82421875 C118.69459446 132.73098731 117.13718734 129.1002561 115.19140625 125.375 C113.31682981 121.63813943 112.88092803 118.38225149 112.82421875 114.2265625 C112.80037109 113.3190625 112.77652344 112.4115625 112.75195312 111.4765625 C112.70916606 109.58355893 112.67781692 107.69026047 112.65820312 105.796875 C112.48280019 100.03713205 112.10404448 96.35641618 108 92 C104.3398427 89.14716794 100.50681557 86.60221243 96.625 84.0625 C95.49748411 83.31257245 94.3707863 82.56141359 93.24487305 81.80908203 C90.9445473 80.27336418 88.64086053 78.74290558 86.33447266 77.21630859 C81.46066438 73.98456188 76.63791271 70.67837628 71.8125 67.375 C70.01710614 66.15077903 68.22153315 64.92682072 66.42578125 63.703125 C62.69079588 61.1557117 58.95963464 58.60279903 55.23046875 56.046875 C51.49887719 53.48930636 47.75913424 50.94447478 44.01171875 48.41015625 C40.9413111 46.33333691 37.90270972 44.22439247 34.89453125 42.05859375 C29.01047674 37.89835592 24.09090128 34.70979282 16.66015625 35.35546875 C12.72459386 36.30901911 9.26091087 37.89328265 5.703125 39.80859375 C-0.99814451 42.76218797 -8.84323363 42.25715286 -16.06054688 42.34179688 C-21.48942141 42.52840088 -24.76956435 43.29221992 -29 47 C-30.63758503 49.11319669 -32.04229696 51.11666546 -33.4375 53.375 C-34.30562408 54.72633317 -35.1755286 56.07652361 -36.046875 57.42578125 C-36.51673828 58.15877441 -36.98660156 58.89176758 -37.47070312 59.64697266 C-40.30155041 64.00260901 -43.25178733 68.2771692 -46.1875 72.5625 C-47.48324441 74.45951829 -48.77881519 76.35665519 -50.07421875 78.25390625 C-50.72438965 79.20539551 -51.37456055 80.15688477 -52.04443359 81.13720703 C-55.19948922 85.75595638 -58.34955299 90.37810648 -61.5 95 C-62.74997473 96.83335056 -63.99997476 98.66668387 -65.25 100.5 C-65.86875 101.4075 -66.4875 102.315 -67.125 103.25 C-72.75 111.5 -72.75 111.5 -74.62451172 114.24926758 C-75.87615952 116.08502855 -77.12778708 117.92080332 -78.37939453 119.7565918 C-81.47901847 124.30289492 -84.57897869 128.84896796 -87.6796875 133.39453125 C-88.5934314 134.73427002 -88.5934314 134.73427002 -89.52563477 136.10107422 C-90.75508688 137.90362144 -91.9847407 139.70603109 -93.21459961 141.50830078 C-96.26941819 145.98689087 -99.31951588 150.46857493 -102.35894775 154.95762634 C-103.88721129 157.21472197 -105.41680572 159.47091456 -106.9463501 161.72714233 C-108.02930707 163.32599474 -109.11014635 164.92628089 -110.19091797 166.52661133 C-111.5112017 168.47403776 -112.83908814 170.41633909 -114.17578125 172.35253906 C-115.34466269 174.04891893 -116.49500647 175.75831412 -117.62109375 177.48339844 C-121.24774972 182.80359001 -121.24774972 182.80359001 -124.9921875 183.78125 C-125.94351563 183.6884375 -126.89484375 183.595625 -127.875 183.5 C-128.84179688 183.4278125 -129.80859375 183.355625 -130.8046875 183.28125 C-131.52914062 183.1884375 -132.25359375 183.095625 -133 183 C-132.00187836 181.41548189 -131.00134515 179.83248296 -130 178.25 C-129.443125 177.36828125 -128.88625 176.4865625 -128.3125 175.578125 C-122.3702476 166.30826773 -116.13586838 157.22443786 -109.9375 148.125 C-109.20289551 147.04565186 -108.46829102 145.96630371 -107.71142578 144.85424805 C-101.09442017 135.13271406 -94.4696351 125.41647729 -87.84277344 115.70166016 C-84.72783713 111.13490272 -81.61397822 106.56741076 -78.5 102 C-77.25000505 100.16666322 -76.00000505 98.33332989 -74.75 96.5 C-74.13125 95.5925 -73.5125 94.685 -72.875 93.75 C-61 76.33333333 -49.125 58.91666667 -37.25 41.5 C-36.63036377 40.59096924 -36.01072754 39.68193848 -35.37231445 38.74536133 C-34.13213613 36.9268967 -32.891099 35.10901744 -31.64916992 33.29174805 C-28.36632402 28.48557184 -25.10251043 23.66773225 -21.86328125 18.83203125 C-21.18523437 17.82462891 -20.5071875 16.81722656 -19.80859375 15.77929688 C-18.5075095 13.84549357 -17.21166838 11.9081491 -15.921875 9.96679688 C-15.33535156 9.09732422 -14.74882812 8.22785156 -14.14453125 7.33203125 C-13.63253174 6.56608643 -13.12053223 5.8001416 -12.59301758 5.01098633 C-8.89832592 0.34689817 -5.94962724 -0.94438528 0 0 Z " fill="#A5E439" transform="translate(293,15)"/>
<path d="M0 0 C13.53 0 27.06 0 41 0 C41 0.33 41 0.66 41 1 C27.8 1 14.6 1 1 1 C-0.05515447 16.96634589 -0.05515447 16.96634589 5.875 21.5 C7.94491912 22.43472237 7.94491912 22.43472237 10 23 C10.99 23.33 11.98 23.66 13 24 C15.15689635 24.09302475 17.31663405 24.12373868 19.47553539 24.12304783 C20.13915104 24.12420167 20.80276668 24.12535552 21.48649189 24.12654433 C23.72589796 24.12920607 25.96523316 24.12469245 28.20463562 24.12025452 C29.8200219 24.12069031 31.43540811 24.12156536 33.05079395 24.12284368 C37.50204023 24.12508707 41.95326261 24.12106946 46.40450585 24.11606562 C51.19999894 24.11175909 55.99549062 24.11320769 60.79098511 24.1139679 C69.10359201 24.114493 77.41619108 24.11134759 85.72879601 24.10573006 C97.7475226 24.09761326 109.7662454 24.09499965 121.78497443 24.09374207 C141.28316544 24.09155183 160.78135228 24.08489251 180.27954102 24.07543945 C199.22355122 24.0662646 218.16756029 24.05918412 237.11157227 24.05493164 C238.27869937 24.05466892 239.44582647 24.05440619 240.64832105 24.05413551 C246.50328101 24.0528305 252.35824096 24.05156678 258.21320093 24.05032361 C306.80880353 24.03995188 355.4044015 24.02226015 404 24 C404.33 16.41 404.66 8.82 405 1 C299.4 1 193.8 1 85 1 C85 0.67 85 0.34 85 0 C203.14 0 321.28 0 443 0 C443 25 443 25 439 33 C431.83227377 39.63186729 423.38166212 38.7042938 414.18493652 38.64164734 C412.45543307 38.64812785 410.72593664 38.65678343 408.99645376 38.66742164 C404.25255594 38.69021794 399.50914906 38.68185736 394.76523471 38.66828239 C389.64584192 38.65902714 384.52654656 38.67851849 379.40718079 38.69425964 C369.38176876 38.72035089 359.35653604 38.7192577 349.33110297 38.70822146 C341.18346135 38.69966428 333.03587162 38.70049285 324.88822937 38.70801735 C323.72874671 38.70907224 322.56926406 38.71012713 321.37464556 38.71121398 C319.01920067 38.7133849 316.66375579 38.71557167 314.30831093 38.71777413 C292.21974363 38.73720552 270.13127695 38.72520434 248.04271787 38.70298818 C229.08846552 38.68473571 210.13440794 38.69564297 191.18017578 38.72729492 C169.17080472 38.76404659 147.16155531 38.78108328 125.15215349 38.76788265 C122.80535922 38.76654154 120.45856494 38.76523256 118.11177063 38.76395607 C116.37975572 38.76301007 116.37975572 38.76301007 114.61275062 38.76204496 C106.47460007 38.75901637 98.33654121 38.77028389 90.19841003 38.78720665 C80.28109788 38.80751837 70.36406066 38.80668199 60.44676292 38.77857425 C55.38643445 38.76478927 50.32658616 38.76064436 45.26627541 38.78252411 C40.63362846 38.80229028 36.0018854 38.79434617 31.36930114 38.76432977 C29.69377456 38.75832294 28.0181747 38.76243145 26.34270686 38.777693 C11.2383845 38.90524475 11.2383845 38.90524475 5.40146017 33.68840152 C-0.33302184 26.7798155 -0.53157093 19.58833064 -0.25 10.9375 C-0.1675 7.328125 -0.085 3.71875 0 0 Z " fill="#E85528" transform="translate(22,459)"/>
<path d="M0 0 C3.038668 1.56992658 5.74032312 3.5504819 8.5 5.5625 C10.20134737 6.76499603 11.90318997 7.96679161 13.60546875 9.16796875 C14.93263916 10.11422119 14.93263916 10.11422119 16.28662109 11.07958984 C20.75272401 14.2405009 25.28484595 17.30324042 29.8125 20.375 C31.66300906 21.63635405 33.51326739 22.89807601 35.36328125 24.16015625 C40.1272258 27.40720642 44.89566845 30.647567 49.66796875 33.88232422 C51.53968254 35.15799398 53.40571 36.4420516 55.265625 37.73486328 C59.25172706 40.50178093 63.19625813 43.16913786 67.45703125 45.49609375 C76.27266785 50.50793645 76.27266785 50.50793645 77.61621094 55.11132812 C78.3307047 60.02979795 78.17311818 64.89647643 77.99853516 69.84912109 C78.0023764 75.48935202 80.16278207 80.41526606 82.75 85.3125 C84.28293888 88.60831858 84.04448138 89.56354827 83 93 C81.26928711 95.94750977 81.26928711 95.94750977 79.02734375 99.19140625 C78.62600723 99.77736069 78.22467072 100.36331512 77.81117249 100.96702576 C76.52759439 102.83758455 75.23295275 104.70015074 73.9375 106.5625 C72.67436087 108.39474311 71.41354068 110.22855571 70.15371704 112.06307983 C69.32112244 113.27123034 68.48435728 114.47651757 67.6434021 115.67886353 C65.6106142 118.59467962 63.65810334 121.52232325 61.84033203 124.57763672 C60.83848877 126.2233667 60.83848877 126.2233667 59.81640625 127.90234375 C59.2447876 128.88581787 58.67316895 129.86929199 58.08422852 130.88256836 C56 133 56 133 52.26147461 133.31860352 C51.18518799 133.21346436 50.10890137 133.1083252 49 133 C49.37253906 132.35933594 49.74507813 131.71867188 50.12890625 131.05859375 C53.14301252 125.584218 53.14301252 125.584218 54.0625 119.5 C53.19408733 116.63934651 52.20549023 114.00356736 51.0625 111.25 C47.44335612 102.52457313 46.73047665 94.42315751 47.41796875 85.04296875 C46.77007266 80.32604303 43.8247121 77.44471512 40.19898987 74.5740509 C38.07224737 73.07899049 35.91281404 71.65094315 33.73046875 70.23828125 C32.91295639 69.69797272 32.09544403 69.15766418 31.25315857 68.60098267 C28.56998489 66.82983454 25.8787084 65.07140986 23.1875 63.3125 C20.36252501 61.45097171 17.53985594 59.58598032 14.71722412 57.72090149 C12.77119345 56.43539811 10.82444746 55.150977 8.87701416 53.86759949 C-0.7044096 47.55046776 -10.22705292 41.14766636 -19.73544312 34.72128296 C-22.34054096 32.96078703 -24.94715053 31.20254753 -27.55395508 29.44458008 C-29.14804818 28.36814784 -30.7420475 27.2915767 -32.3359375 26.21484375 C-33.05697159 25.72859528 -33.77800568 25.2423468 -34.52088928 24.74136353 C-37.1878429 22.93674352 -39.80942072 21.15040601 -42.33837891 19.15454102 C-43.97689553 17.73757638 -43.97689553 17.73757638 -46.25 18.3125 C-47.11625 18.6528125 -47.11625 18.6528125 -48 19 C-46.44289053 14.01724969 -43.86344032 9.52497866 -40 6 C-36.72661514 4.96931534 -33.65709024 5.0657728 -30.25 5.1875 C-28.46347247 5.17827608 -26.67696715 5.16015113 -24.890625 5.1328125 C-23.61928711 5.11782715 -23.61928711 5.11782715 -22.32226562 5.10253906 C-17.26847608 4.87939024 -12.48340429 3.45382626 -8.125 0.90234375 C-5.07379636 -0.39329603 -3.31332784 -0.47727699 0 0 Z " fill="#72CA00" transform="translate(315,65)"/>
<path d="M0 0 C0.96930875 0.02897747 0.96930875 0.02897747 1.9581995 0.05854034 C10.14042315 0.37469457 18.29848651 1.24181485 26.43777275 2.10231018 C29.37048871 2.41209862 32.30407871 2.7120157 35.23805237 3.00964355 C42.51967912 3.75021539 49.79964826 4.50655855 57.07958984 5.26348877 C63.25416705 5.90497684 69.42936184 6.53978349 75.60551643 7.16590881 C78.466279 7.45857655 81.32592977 7.76073302 84.18565369 8.06335449 C101.4481224 11.06625238 101.4481224 11.06625238 117.35545349 8.0411377 C118.5564043 6.42391548 118.5564043 6.42391548 119.48803711 4.43554688 C122.45803711 4.43554688 125.42803711 4.43554688 128.48803711 4.43554688 C128.48803711 10.37523687 125.37811943 14.10419436 122.20141602 18.99121094 C121.12050157 20.67392657 120.08716692 22.38689516 119.05444336 24.09960938 C113.89641244 32.06322347 113.89641244 32.06322347 109.7175293 33.16796875 C107.19534209 33.16974807 104.94792292 32.97482218 102.48803711 32.43554688 C102.13741211 31.48679687 101.78678711 30.53804687 101.42553711 29.56054688 C99.32281492 26.16905947 98.44869132 25.75780046 94.72021484 24.83349609 C90.03495052 23.99821437 85.29390948 23.74870433 80.55053711 23.43554688 C73.38301494 22.92324834 66.28728068 22.34313132 59.17553711 21.31054688 C53.06496359 20.51042954 47.02523641 20.15992818 40.86303711 20.06054688 C40.02087646 20.03460449 39.17871582 20.00866211 38.31103516 19.98193359 C32.87713977 19.96551864 29.76659608 20.78296109 25.48803711 24.43554688 C23.88432239 26.24023932 23.88432239 26.24023932 22.67553711 28.18554688 C16.94801134 36.14784369 10.36106042 40.97337877 1.28491211 44.62304688 C-2.81435989 47.27955834 -4.77123329 49.85786095 -6.51196289 54.43554688 C-7.62586171 60.15174961 -8.09923091 65.88679259 -8.57446289 71.68554688 C-8.72986829 73.39161317 -8.88721659 75.09750347 -9.04638672 76.80322266 C-9.38120156 80.43198496 -9.70312718 84.06156834 -10.01489258 87.69238281 C-10.52465438 93.62195861 -11.06681845 99.54834079 -11.61352539 105.47460938 C-12.15068258 111.30770217 -12.68614179 117.1408836 -13.20556641 122.97558594 C-13.28571991 123.87465668 -13.36587341 124.77372742 -13.44845581 125.70004272 C-13.59678078 127.36779424 -13.74433315 129.03561476 -13.89089966 130.70352173 C-14.35846122 135.95688638 -14.9144841 141.19531597 -15.51196289 146.43554688 C-18.81196289 146.43554688 -22.11196289 146.43554688 -25.51196289 146.43554688 C-24.87587101 138.60194808 -24.18116827 130.77653142 -23.42041016 122.95410156 C-23.31618744 121.87589645 -23.21196472 120.79769135 -23.10458374 119.68681335 C-22.76341086 116.1602618 -22.42099187 112.63383284 -22.07836914 109.10742188 C-21.83795872 106.62941567 -21.59755664 104.15140866 -21.35716248 101.67340088 C-20.85429156 96.49233019 -20.35068623 91.31133143 -19.84667969 86.13037109 C-19.2047208 79.52978717 -18.56555868 72.92893565 -17.9270792 66.32801437 C-17.43182182 61.21282498 -16.93456636 56.0978312 -16.43678093 50.98288727 C-16.20045855 48.55119061 -15.96485276 46.1194242 -15.73001289 43.68758392 C-15.10249373 37.19344057 -14.45753071 30.70157336 -13.78831863 24.21159363 C-13.53097888 21.62656618 -13.30347062 19.04071432 -13.08370972 16.45227051 C-12.94466067 15.01204495 -12.8048467 13.57189292 -12.6640625 12.13183594 C-12.55960312 10.9381842 -12.45514374 9.74453247 -12.34751892 8.51470947 C-10.5277774 1.80866004 -6.64126357 -0.23313017 0 0 Z " fill="#A5E439" transform="translate(107.511962890625,52.564453125)"/>
<path d="M0 0 C12.499571 -0.02312143 24.99913695 -0.04091406 37.49872494 -0.05181217 C43.30213613 -0.05704144 49.10553275 -0.06413987 54.90893555 -0.07543945 C60.50450853 -0.08626678 66.10006745 -0.0922765 71.6956501 -0.09487724 C73.83558944 -0.09673177 75.97552796 -0.10035291 78.11546135 -0.10573006 C81.10164966 -0.11293844 84.08777907 -0.11399103 87.07397461 -0.11352539 C87.96805023 -0.11712067 88.86212585 -0.12071594 89.78329468 -0.12442017 C95.88594784 -0.11405216 95.88594784 -0.11405216 97 1 C97.09504251 3.52541002 97.12557158 6.02337126 97.11352539 8.54907227 C97.11367142 9.33925751 97.11381744 10.12944275 97.1139679 10.943573 C97.11326857 13.56787822 97.10547527 16.19211336 97.09765625 18.81640625 C97.09579214 20.63101665 97.0943682 22.44562756 97.09336853 24.26023865 C97.08954279 29.0459023 97.07971204 33.8315358 97.06866455 38.6171875 C97.05845163 43.49674064 97.05387117 48.37629864 97.04882812 53.25585938 C97.03808982 62.83725286 97.02101273 72.41862393 97 82 C84.0212751 82.09290192 71.04263002 82.16386751 58.06363964 82.20724869 C52.03620297 82.22807518 46.0089947 82.25630271 39.98168945 82.30175781 C34.15911442 82.34539144 28.33675835 82.36917421 22.51403236 82.37950897 C20.29859282 82.38686893 18.08316453 82.40124088 15.86781883 82.42292023 C-10.2118449 82.66786043 -10.2118449 82.66786043 -20.0625 74.4375 C-20.77535156 73.85871094 -21.48820312 73.27992188 -22.22265625 72.68359375 C-24 71 -24 71 -26 68 C-21.76805349 69.62074547 -17.86778284 71.62146892 -13.890625 73.78125 C-5.96932942 77.12103949 2.0187923 77.31903835 10.515625 77.3359375 C11.68961853 77.3425943 12.86361206 77.3492511 14.07318115 77.35610962 C16.54063357 77.36618663 19.00811297 77.37092818 21.47558594 77.37060547 C25.25240363 77.3750028 29.02807424 77.41144281 32.8046875 77.44921875 C35.20832935 77.45508305 37.61197673 77.45905503 40.015625 77.4609375 C41.70634125 77.48249405 41.70634125 77.48249405 43.43121338 77.50448608 C49.61216406 77.50717753 49.61216406 77.50717753 55.18652344 75.09619141 C58.32138612 71.47261426 58.14584074 69.0886952 58.20532227 64.34716797 C58.21522186 63.66412598 58.22512146 62.98108398 58.23532104 62.27734375 C58.26695309 60.01566047 58.29170011 57.75395618 58.31640625 55.4921875 C58.33697431 53.92562305 58.35797075 52.35906417 58.37937927 50.79251099 C58.43461522 46.66616318 58.48401775 42.53976517 58.53222656 38.41333008 C58.59125484 33.46399941 58.65749118 28.51476066 58.72252655 23.56550598 C58.82055525 16.04372671 58.90939806 8.52188892 59 1 C39.53 1 20.06 1 0 1 C0 0.67 0 0.34 0 0 Z " fill="#E95528" transform="translate(392,314)"/>
<path d="M0 0 C2.97 0 5.94 0 9 0 C4.93750449 6.44921162 0.80481125 12.84374019 -3.43945312 19.17480469 C-6.72710782 24.08231208 -10.00137568 28.99875003 -13.27734375 33.9140625 C-13.92505737 34.88577393 -14.572771 35.85748535 -15.2401123 36.85864258 C-16.82680748 39.23905111 -18.41343496 41.61950473 -20 44 C-29.31889703 43.10815531 -38.63747257 42.21304158 -47.95565414 41.31375217 C-52.28245798 40.8962799 -56.60936411 40.47993473 -60.93652344 40.06616211 C-65.11240331 39.66681337 -69.28798875 39.26450827 -73.46338654 38.86015129 C-75.05647908 38.70639648 -76.64967485 38.55370744 -78.24297333 38.40210152 C-80.47443931 38.18958888 -82.70550829 37.97329103 -84.93652344 37.75610352 C-86.20671326 37.63396988 -87.47690308 37.51183624 -88.7855835 37.38600159 C-91.29230793 37.08498285 -93.5833384 36.70202434 -96 36 C-96.51491376 31.99838446 -96.43558898 28.79801435 -95 25 C-91.74846765 22.47950182 -88.39392691 20.78806371 -84.7265625 18.96484375 C-78.05861609 15.6206801 -72.16603238 10.64146578 -68.9375 3.875 C-67.765625 2.1875 -67.765625 2.1875 -66 1 C-61.28764862 0.50133848 -56.7184245 1.08818433 -52.03759766 1.64697266 C-46.36072057 2.3067351 -40.66892616 2.82195821 -34.97940063 3.35919189 C-32.93071384 3.55711743 -30.88374409 3.76804109 -28.83666992 3.98193359 C-19.83607267 4.88204868 -11.03403247 5.16765687 -2 5 C-1.34 3.35 -0.68 1.7 0 0 Z " fill="#72CA00" transform="translate(210,85)"/>
<path d="M0 0 C8.01467244 6.55303005 13.89584187 15.04877844 16.5703125 25.1015625 C16.5703125 27.4115625 16.5703125 29.7215625 16.5703125 32.1015625 C-13.1296875 32.1015625 -42.8296875 32.1015625 -73.4296875 32.1015625 C-71.7958609 19.03094969 -66.19124299 8.56717091 -56.0703125 -0.0390625 C-38.61700012 -12.32867299 -17.53314532 -12.01250481 0 0 Z " fill="#B4F74B" transform="translate(313.4296875,165.8984375)"/>
<path d="M0 0 C7.93021263 4.52748225 12.29468498 10.49709316 15.17578125 19.2421875 C16.56103032 28.91778217 15.17764616 36.40392305 9.703125 44.390625 C4.78391889 50.64720393 -1.37183533 53.75805969 -8.82421875 56.2421875 C-18.56317467 57.23066722 -26.4329147 55.21963902 -34.13671875 49.1171875 C-39.37493984 44.21828438 -43.4021054 36.85083489 -44.0625 29.640625 C-44.31618421 19.30633129 -41.78791913 12.62163554 -34.76171875 5.03515625 C-25.08756485 -3.91733697 -12.00803086 -5.69939272 0 0 Z " fill="#040201" transform="translate(411.82421875,328.7578125)"/>
<path d="M0 0 C5.95386558 3.23579651 11.61779108 6.87400081 17 11 C17 11.33 17 11.66 17 12 C16.13117188 12.09796875 15.26234375 12.1959375 14.3671875 12.296875 C12.63855469 12.52117188 12.63855469 12.52117188 10.875 12.75 C9.73804688 12.88921875 8.60109375 13.0284375 7.4296875 13.171875 C0.61656305 14.81695744 -2.87040765 18.60115373 -6.4375 24.375 C-7.30562408 25.72633317 -8.1755286 27.07652361 -9.046875 28.42578125 C-9.51673828 29.15877441 -9.98660156 29.89176758 -10.47070312 30.64697266 C-13.30155041 35.00260901 -16.25178733 39.2771692 -19.1875 43.5625 C-20.48324441 45.45951829 -21.77881519 47.35665519 -23.07421875 49.25390625 C-23.72438965 50.20539551 -24.37456055 51.15688477 -25.04443359 52.13720703 C-28.19948922 56.75595638 -31.34955299 61.37810648 -34.5 66 C-35.74997473 67.83335056 -36.99997476 69.66668387 -38.25 71.5 C-38.86875 72.4075 -39.4875 73.315 -40.125 74.25 C-45.75 82.5 -45.75 82.5 -47.62451172 85.24926758 C-48.87615952 87.08502855 -50.12778708 88.92080332 -51.37939453 90.7565918 C-54.47901847 95.30289492 -57.57897869 99.84896796 -60.6796875 104.39453125 C-61.5934314 105.73427002 -61.5934314 105.73427002 -62.52563477 107.10107422 C-63.75508688 108.90362144 -64.9847407 110.70603109 -66.21459961 112.50830078 C-69.26941819 116.98689087 -72.31951588 121.46857493 -75.35894775 125.95762634 C-76.88721129 128.21472197 -78.41680572 130.47091456 -79.9463501 132.72714233 C-81.02930707 134.32599474 -82.11014635 135.92628089 -83.19091797 137.52661133 C-84.5112017 139.47403776 -85.83908814 141.41633909 -87.17578125 143.35253906 C-88.34466269 145.04891893 -89.49500647 146.75831412 -90.62109375 148.48339844 C-94.24774972 153.80359001 -94.24774972 153.80359001 -97.9921875 154.78125 C-98.94351563 154.6884375 -99.89484375 154.595625 -100.875 154.5 C-101.84179688 154.4278125 -102.80859375 154.355625 -103.8046875 154.28125 C-104.52914062 154.1884375 -105.25359375 154.095625 -106 154 C-105.00187836 152.41548189 -104.00134515 150.83248296 -103 149.25 C-102.443125 148.36828125 -101.88625 147.4865625 -101.3125 146.578125 C-95.3702476 137.30826773 -89.13586838 128.22443786 -82.9375 119.125 C-82.20289551 118.04565186 -81.46829102 116.96630371 -80.71142578 115.85424805 C-74.09442017 106.13271406 -67.4696351 96.41647729 -60.84277344 86.70166016 C-57.72783713 82.13490272 -54.61397822 77.56741076 -51.5 73 C-50.25000505 71.16666322 -49.00000505 69.33332989 -47.75 67.5 C-47.13125 66.5925 -46.5125 65.685 -45.875 64.75 C-44 62 -42.125 59.25 -40.25 56.5 C-39.63092773 55.5920166 -39.01185547 54.6840332 -38.37402344 53.74853516 C-37.12731907 51.92005707 -35.88057445 50.09160643 -34.63378906 48.26318359 C-30.81076981 42.656555 -26.9893011 37.04887349 -23.16894531 31.44042969 C-21.29137814 28.685709 -19.41146105 25.93260406 -17.53125 23.1796875 C-15.24955985 19.83793106 -12.97913266 16.48901328 -10.71875 13.1328125 C-9.72918598 11.67186192 -8.73960383 10.21092362 -7.75 8.75 C-7.30817383 8.08822754 -6.86634766 7.42645508 -6.41113281 6.74462891 C-4.43380397 3.83628826 -2.96461511 1.97641007 0 0 Z " fill="#B1F34A" transform="translate(266,44)"/>
<path d="M0 0 C12.54 0 25.08 0 38 0 C38 11.22 38 22.44 38 34 C-80.14 34 -198.28 34 -320 34 C-320 33.67 -320 33.34 -320 33 C-214.4 33 -108.8 33 0 33 C0 22.11 0 11.22 0 0 Z " fill="#EF8C1C" transform="translate(427,411)"/>
<path d="M0 0 C4.41071299 -0.12452065 8.82046857 -0.21476527 13.23242188 -0.2746582 C14.72999923 -0.29965007 16.22745651 -0.33365627 17.72460938 -0.37719727 C32.73286402 -0.80243115 32.73286402 -0.80243115 38.59204102 3.65478516 C41.95108042 6.86413267 44.90650249 9.84734544 45.11352539 14.61376953 C45.10828857 15.69255371 45.10305176 16.77133789 45.09765625 17.8828125 C45.09515869 18.93355957 45.09266113 19.98430664 45.09008789 21.06689453 C45.08098389 22.40606934 45.07187988 23.74524414 45.0625 25.125 C45.041875 29.37375 45.02125 33.6225 45 38 C32.46 38 19.92 38 7 38 C6.6875 26.5625 6.6875 26.5625 6.61206055 23.01391602 C6.30474537 14.17804384 4.6711213 7.51639979 0 0 Z " fill="#EC5628" transform="translate(420,213)"/>
<path d="M0 0 C12.54 0 25.08 0 38 0 C38 11.22 38 22.44 38 34 C14.57 34 -8.86 34 -33 34 C-33 33.67 -33 33.34 -33 33 C-22.11 33 -11.22 33 0 33 C0 22.11 0 11.22 0 0 Z " fill="#FD8F1C" transform="translate(427,266)"/>
<path d="M0 0 C10.395 0.99 10.395 0.99 21 2 C19.59616504 6.21150488 16.95011127 7.04203628 13.2265625 9.20703125 C9.45645255 12.2429619 8.20459141 15.86858391 7.35571289 20.56298828 C7.21580212 21.89753792 7.0888486 23.23348899 6.97265625 24.5703125 C6.89891785 25.30852234 6.82517944 26.04673218 6.74920654 26.80731201 C6.5087592 29.24557561 6.28550811 31.68508468 6.0625 34.125 C5.89700751 35.84009651 5.73056653 37.55510172 5.56323242 39.27001953 C5.02408861 44.84504501 4.51088567 50.42232504 4 56 C3.81582873 57.99805365 3.63158309 59.99610045 3.44726562 61.99414062 C2.72485476 69.84180977 2.00585559 77.68975506 1.30688477 85.53955078 C1.22666077 86.43869202 1.14643677 87.33783325 1.06378174 88.26422119 C0.91528792 89.93206841 0.76762807 91.59999022 0.62103271 93.26800537 C0.15353536 98.52136509 -0.40252247 103.75978018 -1 109 C-4.3 109 -7.6 109 -11 109 C-10.12852959 98.03019517 -9.05043628 87.08340995 -7.96875 76.1328125 C-7.77077103 74.12409678 -7.57281406 72.11537888 -7.37487793 70.10665894 C-6.96200866 65.91934738 -6.54837116 61.7321125 -6.13427734 57.54492188 C-5.60438286 52.18542054 -5.0772021 46.82565597 -4.55068207 41.46582222 C-4.14369866 37.32726555 -3.7348927 33.18889038 -3.32557678 29.05056381 C-3.13036498 27.07391656 -2.93580854 25.09720446 -2.7419281 23.12042618 C-2.47113945 20.36150405 -2.19779829 17.60284604 -1.92382812 14.84423828 C-1.8448378 14.03374527 -1.76584747 13.22325226 -1.6844635 12.38819885 C-1.60880661 11.63160477 -1.53314972 10.87501068 -1.4552002 10.0954895 C-1.39105171 9.44554079 -1.32690323 8.79559208 -1.26081085 8.12594795 C-0.92704052 5.40528524 -0.45062744 2.70376463 0 0 Z " fill="#B0F249" transform="translate(93,90)"/>
<path d="M0 0 C4.12423001 2.68971523 7.04506416 5.26938749 8.546875 9.984375 C9.4176541 15.03489378 8.7614636 18.72671775 6.16015625 23.14453125 C3.50608518 26.71825004 0.91160376 28.55657335 -3.5234375 29.25 C-9.21982199 29.52370016 -12.71340812 28.74859287 -17.125 24.875 C-20.8736075 20.60934319 -21.4880957 16.67919513 -21.3984375 11.15625 C-20.8879927 6.89768191 -18.85097332 4.24637979 -15.546875 1.62109375 C-10.36815656 -1.72641119 -5.8743828 -2.11477781 0 0 Z " fill="#ECECEC" transform="translate(404.125,341.125)"/>
<path d="M0 0 C3.06303578 -0.08115993 6.12390815 -0.14057409 9.1875 -0.1875 C10.48397461 -0.22520508 10.48397461 -0.22520508 11.80664062 -0.26367188 C16.72579386 -0.32021387 20.00304609 -0.2053242 24 3 C26 5 26 5 26 13 C14.78 13 3.56 13 -8 13 C-5.69 9.37 -3.38 5.74 -1 2 C-0.67 1.34 -0.34 0.68 0 0 Z " fill="#FDAF24" transform="translate(425,185)"/>
<path d="M0 0 C0.94101562 0.00322266 1.88203125 0.00644531 2.8515625 0.00976562 C3.83640625 0.01814453 4.82125 0.02652344 5.8359375 0.03515625 C6.82851563 0.03966797 7.82109375 0.04417969 8.84375 0.04882812 C11.29950472 0.06063464 13.75522856 0.07857043 16.2109375 0.09765625 C15.8809375 4.38765625 15.5509375 8.67765625 15.2109375 13.09765625 C6.6309375 13.09765625 -1.9490625 13.09765625 -10.7890625 13.09765625 C-10.7890625 6.09765625 -10.7890625 6.09765625 -8.9140625 3.22265625 C-5.83640326 0.14499701 -4.2299305 -0.02548151 0 0 Z " fill="#FCAF24" transform="translate(52.7890625,184.90234375)"/>
<path d="M0 0 C5.50948569 4.28679234 8.45931527 7.0607255 9.4375 14.1875 C8.44186743 22.86372669 3.01627461 29.65855469 -2.05517578 36.5144043 C-4.33341325 39.6047327 -6.47285029 42.70726499 -8.4375 46.0078125 C-8.82711914 46.65524414 -9.21673828 47.30267578 -9.61816406 47.96972656 C-10.35710847 49.21362694 -11.07875844 50.46801166 -11.78027344 51.73339844 C-12.796875 53.4296875 -12.796875 53.4296875 -15 56 C-18.265625 56.3828125 -18.265625 56.3828125 -21 56 C-19.4605256 51.56620882 -17.08369853 47.87437029 -14.46484375 44.01953125 C-14.02612442 43.36546799 -13.58740509 42.71140472 -13.13539124 42.03752136 C-11.74044881 39.9595464 -10.33925494 37.88588404 -8.9375 35.8125 C-7.53339848 33.72760743 -6.13060723 31.64184466 -4.72889709 29.55534363 C-3.85802853 28.25988444 -2.98555121 26.96550499 -2.11131287 25.6723175 C1.0094991 21.0425459 2.15331629 18.71745557 2.1875 13.125 C2.20876953 11.55105469 2.20876953 11.55105469 2.23046875 9.9453125 C2.00127236 7.01626036 1.38362239 5.5266148 0 3 C0 2.01 0 1.02 0 0 Z " fill="#AFF149" transform="translate(410,142)"/>
</svg>
